<svg xmlns="http://www.w3.org/2000/svg" version="1.1" viewBox="-5.0 -10.0 110.0 135.0">
 <g>
  <path d="m56.668 10.145-23.336 18.98v41.75l23.406 19.039z"/>
  <path d="m55.824 91.316 1.0547-1.2891h-0.003906z"/>
  <path d="m3.332 31.668v36.664c0 0.44141 0.17578 0.86719 0.48828 1.1797s0.73828 0.48828 1.1797 0.48828h25v-40h-25c-0.92188 0-1.668 0.74609-1.668 1.668z"/>
  <path d="m82.355 50 13.82-13.82h0.003907c0.62891-0.65625 0.62109-1.6953-0.023438-2.3359-0.64062-0.64453-1.6797-0.65234-2.3359-0.023438l-13.82 13.824-13.82-13.82v-0.003907c-0.65625-0.62891-1.6953-0.62109-2.3359 0.023438-0.64453 0.64062-0.65234 1.6797-0.023438 2.3359l13.824 13.82-13.82 13.82h-0.003907c-0.32031 0.3125-0.50391 0.73828-0.50781 1.1875-0.003906 0.44531 0.17188 0.875 0.48828 1.1914 0.31641 0.31641 0.74609 0.49219 1.1914 0.48828 0.44922-0.003906 0.875-0.1875 1.1875-0.50781l13.82-13.824 13.82 13.82v0.003907c0.65625 0.62891 1.6953 0.62109 2.3359-0.023438 0.64453-0.64062 0.65234-1.6797 0.023438-2.3359z"/>
 </g>
<text x="0.0" y="117.5" font-size="5.0" font-weight="bold" font-family="Arbeit Regular, Helvetica, Arial-Unicode, Arial, Sans-serif" fill="#000000">Created by Juicy Fish</text><text x="0.0" y="122.5" font-size="5.0" font-weight="bold" font-family="Arbeit Regular, Helvetica, Arial-Unicode, Arial, Sans-serif" fill="#000000">from Noun Project</text></svg>